<svg
    xmlns="http://www.w3.org/2000/svg"
    viewBox="0 0 80 80"
    class="LogoIcon">

    <path
        fill="#0090f9"
        d="M34.1209 33.6694C33.1101 32.7795 31.7517 32.3323 30 32.3323V26C32.8401 26 35.8386 26.7453 38.3047 28.9166C40.766 31.0836 42.3107 34.3309 42.9198 38.5762C43.4001 41.924 44.0394 44.5841 44.9956 46.3487C45.8525 47.93 46.7195 48.4282 47.9159 48.4282V54.7605C43.7678 54.7605 41.0569 52.3705 39.4288 49.3657C37.8998 46.5441 37.1464 42.92 36.6523 39.4756C36.1889 36.2462 35.1365 34.5636 34.1209 33.6694Z" />
    <path
        fill="#005b9c"
        d="M18.5238 13.0008C19.5575 13.0039 20.4691 13.5262 21.0112 14.3206L33.1535 26.9038C34.2822 28.0735 34.2822 29.9265 33.1535 31.0962L21.0132 43.6774C20.4697 44.4757 19.5534 45 18.5146 45H5.02009C3.35215 45 2 43.6483 2 41.9808V16.02C2 14.3525 3.35215 13.0008 5.02009 13.0008H18.3851C18.4314 12.9997 18.4776 12.9997 18.5238 13.0008ZM17.1719 19.0393H8.04018V38.9615H17.1711L26.7836 28.9999L17.1719 19.0393Z" />
    <path
        fill="#005b9c"
        d="M79 51C79 59.8366 71.8366 67 63 67C54.1634 67 47 59.8366 47 51C47 42.1634 54.1634 35 63 35C71.8366 35 79 42.1634 79 51ZM63 60.5218C68.2587 60.5218 72.5218 56.2587 72.5218 51C72.5218 45.7413 68.2587 41.4782 63 41.4782C57.7412 41.4782 53.4782 45.7413 53.4782 51C53.4782 56.2587 57.7412 60.5218 63 60.5218Z" />
</svg>
